<svg width="193" height="41" viewBox="0 0 193 41" fill="none" xmlns="http://www.w3.org/2000/svg">
<path d="M21.4001 2.64439C19.2261 2.64439 17.0735 3.10623 15.065 4.00353C13.0565 4.90083 11.2316 6.21603 9.69437 7.87403C8.15715 9.53203 6.93777 11.5004 6.10583 13.6666C5.27389 15.8329 4.8457 18.1547 4.8457 20.4995C4.8457 22.8443 5.27389 25.1661 6.10583 27.3324C6.93777 29.4986 8.15716 31.467 9.69437 33.125C11.2316 34.783 13.0565 36.0982 15.065 36.9955C17.0735 37.8928 19.2261 38.3546 21.4001 38.3546L21.4001 20.4995L21.4001 2.64439Z" fill="#ED3729"/>
<path d="M37.9548 2.64437C35.7808 2.64437 33.6282 3.10621 31.6197 4.00351C29.6112 4.90082 27.7863 6.21601 26.2491 7.87402C24.7118 9.53202 23.4925 11.5003 22.6605 13.6666C21.8286 15.8329 21.4004 18.1547 21.4004 20.4995C21.4004 22.8443 21.8286 25.1661 22.6605 27.3323C23.4925 29.4986 24.7118 31.467 26.2491 33.125C27.7863 34.783 29.6112 36.0982 31.6197 36.9955C33.6282 37.8928 35.7808 38.3546 37.9548 38.3546L37.9548 20.4995L37.9548 2.64437Z" fill="#ED3729"/>
<path d="M54.5095 2.64437C52.3355 2.64437 50.1828 3.10621 48.1744 4.00351C46.1659 4.90082 44.341 6.21601 42.8037 7.87402C41.2665 9.53202 40.0471 11.5003 39.2152 13.6666C38.3833 15.8329 37.9551 18.1547 37.9551 20.4995C37.9551 22.8443 38.3833 25.1661 39.2152 27.3323C40.0471 29.4986 41.2665 31.467 42.8037 33.125C44.341 34.783 46.1659 36.0982 48.1744 36.9955C50.1829 37.8928 52.3355 38.3546 54.5095 38.3546L54.5095 20.4995L54.5095 2.64437Z" fill="#ED3729"/>
<path d="M65.4677 26.8364C65.0197 26.8364 64.6757 26.7084 64.4357 26.4524C64.1957 26.1964 64.0757 25.8444 64.0757 25.3964V10.9724C64.0757 10.5084 64.2037 10.1564 64.4597 9.91638C64.7157 9.66038 65.0677 9.53238 65.5157 9.53238C65.9157 9.53238 66.2277 9.61238 66.4517 9.77238C66.6917 9.91638 66.9077 10.1724 67.0997 10.5404L73.0277 21.5084H72.2597L78.1877 10.5404C78.3797 10.1724 78.5877 9.91638 78.8117 9.77238C79.0357 9.61238 79.3477 9.53238 79.7477 9.53238C80.1957 9.53238 80.5397 9.66038 80.7797 9.91638C81.0197 10.1564 81.1397 10.5084 81.1397 10.9724V25.3964C81.1397 25.8444 81.0197 26.1964 80.7797 26.4524C80.5557 26.7084 80.2117 26.8364 79.7477 26.8364C79.2997 26.8364 78.9557 26.7084 78.7157 26.4524C78.4757 26.1964 78.3557 25.8444 78.3557 25.3964V14.2844H78.8837L73.8437 23.4764C73.6837 23.7484 73.5157 23.9484 73.3397 24.0764C73.1637 24.2044 72.9237 24.2684 72.6197 24.2684C72.3157 24.2684 72.0677 24.2044 71.8757 24.0764C71.6837 23.9324 71.5157 23.7324 71.3717 23.4764L66.2837 14.2604H66.8597V25.3964C66.8597 25.8444 66.7397 26.1964 66.4997 26.4524C66.2757 26.7084 65.9317 26.8364 65.4677 26.8364ZM86.3996 26.8364C85.9036 26.8364 85.5196 26.7004 85.2476 26.4284C84.9916 26.1404 84.8636 25.7484 84.8636 25.2524V11.1164C84.8636 10.6044 84.9916 10.2124 85.2476 9.94038C85.5196 9.66838 85.9036 9.53238 86.3996 9.53238C86.8956 9.53238 87.2716 9.66838 87.5276 9.94038C87.7996 10.2124 87.9356 10.6044 87.9356 11.1164V25.2524C87.9356 25.7484 87.8076 26.1404 87.5516 26.4284C87.2956 26.7004 86.9116 26.8364 86.3996 26.8364ZM92.2131 26.8364C91.8131 26.8364 91.4851 26.7324 91.2291 26.5244C90.9731 26.3004 90.8211 26.0284 90.7731 25.7084C90.7411 25.3724 90.8531 25.0364 91.1091 24.7004L96.6051 17.3804V18.7004L91.3731 11.6924C91.1171 11.3404 91.0051 11.0044 91.0371 10.6844C91.0691 10.3484 91.2131 10.0764 91.4691 9.86838C91.7251 9.64438 92.0451 9.53238 92.4291 9.53238C92.7491 9.53238 93.0291 9.61238 93.2691 9.77238C93.5251 9.91638 93.7811 10.1644 94.0371 10.5164L98.3571 16.4684H97.3731L101.669 10.5164C101.925 10.1644 102.173 9.91638 102.413 9.77238C102.669 9.61238 102.965 9.53238 103.301 9.53238C103.701 9.53238 104.029 9.63638 104.285 9.84438C104.541 10.0524 104.685 10.3244 104.717 10.6604C104.749 10.9804 104.629 11.3244 104.357 11.6924L99.1251 18.7004V17.3804L104.597 24.7004C104.853 25.0364 104.965 25.3724 104.933 25.7084C104.901 26.0284 104.757 26.3004 104.501 26.5244C104.245 26.7324 103.909 26.8364 103.493 26.8364C103.189 26.8364 102.909 26.7564 102.653 26.5964C102.413 26.4364 102.157 26.1804 101.885 25.8284L97.3251 19.5884H98.3811L93.8451 25.8284C93.5891 26.1804 93.3331 26.4364 93.0771 26.5964C92.8211 26.7564 92.5331 26.8364 92.2131 26.8364ZM109.394 26.6444C108.866 26.6444 108.458 26.5084 108.17 26.2364C107.898 25.9484 107.762 25.5404 107.762 25.0124V11.3564C107.762 10.8284 107.898 10.4284 108.17 10.1564C108.458 9.86838 108.866 9.72438 109.394 9.72438H117.962C118.362 9.72438 118.666 9.82838 118.874 10.0364C119.098 10.2444 119.21 10.5404 119.21 10.9244C119.21 11.3244 119.098 11.6364 118.874 11.8604C118.666 12.0684 118.362 12.1724 117.962 12.1724H110.714V16.8284H117.434C117.85 16.8284 118.162 16.9324 118.37 17.1404C118.578 17.3484 118.682 17.6524 118.682 18.0524C118.682 18.4524 118.578 18.7564 118.37 18.9644C118.162 19.1724 117.85 19.2764 117.434 19.2764H110.714V24.1964H117.962C118.362 24.1964 118.666 24.3004 118.874 24.5084C119.098 24.7164 119.21 25.0204 119.21 25.4204C119.21 25.8204 119.098 26.1244 118.874 26.3324C118.666 26.5404 118.362 26.6444 117.962 26.6444H109.394ZM123.642 26.6444C123.146 26.6444 122.762 26.5084 122.49 26.2364C122.218 25.9484 122.082 25.5564 122.082 25.0604V11.2124C122.082 10.7004 122.21 10.3164 122.466 10.0604C122.738 9.78838 123.122 9.65238 123.618 9.65238C124.114 9.65238 124.49 9.78838 124.746 10.0604C125.018 10.3164 125.154 10.7004 125.154 11.2124V24.0284H132.114C132.546 24.0284 132.874 24.1404 133.098 24.3644C133.338 24.5884 133.458 24.9084 133.458 25.3244C133.458 25.7404 133.338 26.0684 133.098 26.3084C132.874 26.5324 132.546 26.6444 132.114 26.6444H123.642ZM137.016 26.7644C136.472 26.7644 136.032 26.5964 135.696 26.2604C135.376 25.9244 135.216 25.4924 135.216 24.9644C135.216 24.4524 135.376 24.0364 135.696 23.7164C136.032 23.3804 136.472 23.2124 137.016 23.2124C137.576 23.2124 138.008 23.3804 138.312 23.7164C138.632 24.0364 138.792 24.4524 138.792 24.9644C138.792 25.4924 138.632 25.9244 138.312 26.2604C138.008 26.5964 137.576 26.7644 137.016 26.7644ZM148.38 26.8844C147.212 26.8844 146.18 26.7324 145.284 26.4284C144.404 26.1244 143.66 25.6764 143.052 25.0844C142.444 24.4764 141.988 23.7244 141.684 22.8284C141.38 21.9324 141.228 20.8924 141.228 19.7084V11.0924C141.228 10.5644 141.356 10.1724 141.612 9.91638C141.884 9.66038 142.268 9.53238 142.764 9.53238C143.26 9.53238 143.636 9.66038 143.892 9.91638C144.164 10.1724 144.3 10.5644 144.3 11.0924V19.6844C144.3 21.2044 144.644 22.3484 145.332 23.1164C146.036 23.8684 147.052 24.2444 148.38 24.2444C149.708 24.2444 150.716 23.8684 151.404 23.1164C152.092 22.3484 152.436 21.2044 152.436 19.6844V11.0924C152.436 10.5644 152.564 10.1724 152.82 9.91638C153.092 9.66038 153.476 9.53238 153.972 9.53238C154.452 9.53238 154.82 9.66038 155.076 9.91638C155.348 10.1724 155.484 10.5644 155.484 11.0924V19.7084C155.484 21.2764 155.212 22.5964 154.668 23.6684C154.14 24.7404 153.348 25.5484 152.292 26.0924C151.236 26.6204 149.932 26.8844 148.38 26.8844ZM159.763 26.6444C159.363 26.6444 159.035 26.5644 158.779 26.4044C158.539 26.2444 158.371 26.0284 158.275 25.7564C158.195 25.4684 158.195 25.1564 158.275 24.8204C158.371 24.4684 158.555 24.1084 158.827 23.7404L167.995 11.3084V12.2924H159.523C159.075 12.2924 158.731 12.1804 158.491 11.9564C158.267 11.7324 158.155 11.4124 158.155 10.9964C158.155 10.5804 158.267 10.2684 158.491 10.0604C158.731 9.83638 159.075 9.72438 159.523 9.72438H169.459C169.859 9.72438 170.179 9.80438 170.419 9.96438C170.675 10.1244 170.843 10.3404 170.923 10.6124C171.019 10.8844 171.019 11.1964 170.923 11.5484C170.843 11.9004 170.667 12.2604 170.395 12.6284L161.227 25.0364V24.0764H170.059C170.507 24.0764 170.843 24.1884 171.067 24.4124C171.307 24.6204 171.427 24.9324 171.427 25.3484C171.427 25.7644 171.307 26.0844 171.067 26.3084C170.843 26.5324 170.507 26.6444 170.059 26.6444H159.763Z" fill="#202020"/>
</svg>
