<svg width="146" height="37" viewBox="0 0 146 37" fill="none" xmlns="http://www.w3.org/2000/svg">
<path fill-rule="evenodd" clip-rule="evenodd" d="M142.863 18.3112C143.491 18.3112 144 17.816 144 17.2052V14.0215C144 13.4108 143.491 12.9156 142.863 12.9156H140.372V9.65296C140.372 8.91165 139.637 8.38024 138.907 8.59405L135.39 9.62452C134.91 9.76523 134.581 10.1955 134.581 10.6835V12.9156H133.102C132.473 12.9156 131.964 13.4108 131.964 14.0215V17.2052C131.964 17.816 132.473 18.3112 133.102 18.3112H134.581V23.3673C134.581 26.0594 135.279 27.9258 136.674 28.9664C137.951 29.8833 140.059 30.2221 142.997 29.9829C143.57 29.9363 144 29.4618 144 28.9023V25.9593C144 25.3253 143.453 24.829 142.801 24.8186C142.108 24.8076 141.577 24.7423 141.209 24.6229C140.651 24.4419 140.372 23.9781 140.372 23.2316V18.3112H142.863ZM93.1925 14.3409C92.0299 13.074 90.4365 12.4406 88.4133 12.4406C86.2506 12.4406 84.5643 13.1645 83.3552 14.6123C82.3781 13.1645 80.8897 12.4406 78.8899 12.4406C76.8201 12.4406 75.2502 13.1306 74.1802 14.5105V14.0215C74.1802 13.4108 73.6711 12.9156 73.0433 12.9156H69.5263C68.8985 12.9156 68.3894 13.4108 68.3894 14.0215V28.7767C68.3894 29.3875 68.8985 29.8826 69.5263 29.8826H73.0433C73.6711 29.8826 74.1802 29.3875 74.1802 28.7767V20.6186C74.1802 19.7364 74.3781 19.0464 74.7734 18.5487C75.1918 18.0283 75.7966 17.7682 76.5873 17.7682C78.0527 17.7682 78.785 18.56 78.785 20.1436V28.7767C78.785 29.3875 79.2941 29.8826 79.9219 29.8826H83.4393C84.0671 29.8826 84.5762 29.3875 84.5762 28.7767V20.6186C84.5762 19.7364 84.7737 19.0464 85.169 18.5487C85.5878 18.0283 86.1926 17.7682 86.9833 17.7682C88.4248 17.7682 89.146 18.56 89.146 20.1436V28.7767C89.146 29.3875 89.6551 29.8826 90.2829 29.8826H93.8349C94.4627 29.8826 94.9718 29.3875 94.9718 28.7767V19.4988C94.9718 17.3044 94.3785 15.5851 93.1925 14.3409ZM111.513 12.9156C110.885 12.9156 110.376 13.4108 110.376 14.0215V14.4766C109.19 13.1192 107.539 12.4406 105.423 12.4406C103.097 12.4406 101.144 13.3002 99.5619 15.0195C98.004 16.7162 97.2248 18.8428 97.2248 21.3991C97.2248 23.9555 98.004 26.0933 99.5619 27.8127C101.144 29.5094 103.097 30.3577 105.423 30.3577C107.539 30.3577 109.19 29.679 110.376 28.3217V28.7767C110.376 29.3875 110.885 29.8826 111.513 29.8826H115.03C115.658 29.8826 116.168 29.3875 116.168 28.7767V14.0215C116.168 13.4108 115.658 12.9156 115.03 12.9156H111.513ZM106.714 25.0979C105.621 25.0979 104.737 24.7586 104.062 24.0799C103.388 23.4012 103.051 22.5077 103.051 21.3991C103.051 20.2906 103.388 19.397 104.062 18.7183C104.737 18.0397 105.621 17.7003 106.714 17.7003C107.807 17.7003 108.69 18.0397 109.365 18.7183C110.039 19.397 110.376 20.2906 110.376 21.3991C110.376 22.5077 110.039 23.4012 109.365 24.0799C108.69 24.7586 107.807 25.0979 106.714 25.0979ZM125.315 16.0715C125.641 14.963 126.292 14.1033 127.269 13.4925C127.931 13.0782 128.647 12.8045 129.417 12.6712C130.035 12.564 130.548 13.0714 130.548 13.6822V17.5259C130.548 18.2055 129.918 18.7108 129.222 18.7666C128.405 18.8321 127.637 19.0874 126.92 19.5327C125.85 20.2115 125.315 21.32 125.315 22.8583V28.7767C125.315 29.3875 124.806 29.8826 124.178 29.8826H120.661C120.033 29.8826 119.524 29.3875 119.524 28.7767V14.0215C119.524 13.4108 120.033 12.9156 120.661 12.9156H124.178C124.806 12.9156 125.315 13.4108 125.315 14.0215V16.0715ZM41.0386 12.9157C40.4108 12.9157 39.9017 13.4108 39.9017 14.0216V14.4766C38.7157 13.1193 37.0643 12.4406 34.948 12.4406C32.6223 12.4406 30.6688 13.3003 29.0873 15.0196C27.5291 16.7163 26.75 18.8428 26.75 21.3992C26.75 23.9556 27.5291 26.0934 29.0873 27.8127C30.6688 29.5094 32.6223 30.3578 34.948 30.3578C37.0643 30.3578 38.7157 29.6791 39.9017 28.3217V28.7768C39.9017 29.3876 40.4108 29.8827 41.0386 29.8827H44.5557C45.1835 29.8827 45.6925 29.3876 45.6925 28.7768V14.0216C45.6925 13.4108 45.1835 12.9157 44.5557 12.9157H41.0386ZM36.2387 25.098C35.1457 25.098 34.2619 24.7586 33.5875 24.08C32.913 23.4013 32.5758 22.5077 32.5758 21.3992C32.5758 20.2907 32.913 19.3971 33.5875 18.7184C34.2619 18.0397 35.1457 17.7004 36.2387 17.7004C37.3318 17.7004 38.2155 18.0397 38.8901 18.7184C39.5644 19.3971 39.9017 20.2907 39.9017 21.3992C39.9017 22.5077 39.5644 23.4013 38.8901 24.08C38.2155 24.7586 37.3318 25.098 36.2387 25.098ZM60.9799 12.9157C60.4654 12.9157 60.0155 13.2514 59.8818 13.7344L57.3871 22.7566L54.1294 13.6579C53.9704 13.2135 53.5397 12.9157 53.0559 12.9157H49.0751C48.2652 12.9157 47.715 13.7159 48.0243 14.444L54.3523 29.3398C53.9569 30.1089 53.4451 30.6406 52.8173 30.9347C52.3993 31.1304 51.8476 31.261 51.1618 31.3264C50.537 31.3861 50.0264 31.8709 50.0264 32.4817V35.6102C50.0264 36.2025 50.5067 36.6947 51.1157 36.6808C53.3218 36.6301 55.1564 36.1174 56.6199 35.1425C58.3173 34.0113 59.6313 32.1676 60.5619 29.6112L66.0023 14.3847C66.2589 13.666 65.7103 12.9157 64.9284 12.9157H60.9799Z" fill="#1E1E1E"/>
<path fill-rule="evenodd" clip-rule="evenodd" d="M4.60273 0C2.06071 0 0 2.00454 0 4.47726V25.4217C0 27.8944 2.06071 29.899 4.60273 29.899C7.14474 29.899 9.20545 27.8944 9.20545 25.4217V20.0391H15.719C21.4013 20.0391 26.0077 15.5583 26.0077 10.0308C26.0077 4.50342 21.4013 0.0225374 15.719 0.0225374H5.06743C4.91463 0.0076328 4.7596 0 4.60273 0Z" fill="#FF7643"/>
<path fill-rule="evenodd" clip-rule="evenodd" d="M9.22412 20.0411V25.4217C9.22412 27.8944 7.16341 29.899 4.6214 29.899C3.34462 29.899 2.18927 29.3933 1.35547 28.5766C1.92483 23.743 5.16094 20.0391 9.06783 20.0391C9.12004 20.0391 9.17214 20.0398 9.22412 20.0411Z" fill="#1E1E1E"/>
</svg>
